<?xml version="1.0" encoding="UTF-8" standalone="no"?>
<svg
   xmlns:dc="http://purl.org/dc/elements/1.1/"
   xmlns:cc="http://creativecommons.org/ns#"
   xmlns:rdf="http://www.w3.org/1999/02/22-rdf-syntax-ns#"
   xmlns:svg="http://www.w3.org/2000/svg"
   xmlns="http://www.w3.org/2000/svg"
   xmlns:sodipodi="http://sodipodi.sourceforge.net/DTD/sodipodi-0.dtd"
   xmlns:inkscape="http://www.inkscape.org/namespaces/inkscape"
   viewBox="0 0 96 96"
   id="Icons_Checklist_LTR"
   overflow="hidden"
   version="1.1"
   sodipodi:docname="accurate.svg"
   inkscape:version="0.92.4 (5da689c313, 2019-01-14)">
  <metadata
     id="metadata27">
    <rdf:RDF>
      <cc:Work
         rdf:about="">
        <dc:format>image/svg+xml</dc:format>
        <dc:type
           rdf:resource="http://purl.org/dc/dcmitype/StillImage" />
      </cc:Work>
    </rdf:RDF>
  </metadata>
  <defs
     id="defs25" />
  <sodipodi:namedview
     pagecolor="#ffffff"
     bordercolor="#666666"
     borderopacity="1"
     objecttolerance="10"
     gridtolerance="10"
     guidetolerance="10"
     inkscape:pageopacity="0"
     inkscape:pageshadow="2"
     inkscape:window-width="1920"
     inkscape:window-height="1106"
     id="namedview23"
     showgrid="false"
     inkscape:zoom="2.4583333"
     inkscape:cx="-87.864407"
     inkscape:cy="47.999998"
     inkscape:window-x="-11"
     inkscape:window-y="-11"
     inkscape:window-maximized="1"
     inkscape:current-layer="Icons_Checklist_LTR" />
  <g
     id="g20"
     style="fill-opacity:1;fill:#a333c8">
    <path
       d="M23 14 73 14 73 82 23 82 23 14ZM17 88 79 88 79 8 17 8 17 88Z"
       id="path2"
       style="fill-opacity:1;fill:#a333c8" />
    <rect
       x="50"
       y="23"
       width="17"
       height="4"
       id="rect4"
       style="fill-opacity:1;fill:#a333c8" />
    <rect
       x="50"
       y="39"
       width="17"
       height="4"
       id="rect6"
       style="fill-opacity:1;fill:#a333c8" />
    <rect
       x="50"
       y="71"
       width="17"
       height="4"
       id="rect8"
       style="fill-opacity:1;fill:#a333c8" />
    <rect
       x="50"
       y="55"
       width="17"
       height="4"
       id="rect10"
       style="fill-opacity:1;fill:#a333c8" />
    <path
       d="M43.8 20.8 41 18 34.4 24.6 31.8 22 29 24.8 34.4 30.2Z"
       id="path12"
       style="fill-opacity:1;fill:#a333c8" />
    <path
       d="M43.8 36.8 41 34 34.4 40.6 31.8 38 29 40.8 34.4 46.2Z"
       id="path14"
       style="fill-opacity:1;fill:#a333c8" />
    <path
       d="M43.8 52.8 41 50 34.4 56.6 31.8 54 29 56.8 34.4 62.2Z"
       id="path16"
       style="fill-opacity:1;fill:#a333c8" />
    <path
       d="M43.8 68.6 41 65.8 34.4 72.4 31.8 69.8 29 72.6 34.4 78Z"
       id="path18"
       style="fill-opacity:1;fill:#a333c8" />
  </g>
</svg>
